<svg width="512" height="512" viewBox="0 0 512 512" fill="none" xmlns="http://www.w3.org/2000/svg">
<g clip-path="url(#clip0)">
<path d="M506.726 344.414C480.784 322.258 465.905 290.033 465.905 256.001C465.905 221.969 480.784 189.743 506.726 167.588C517.742 158.18 510.247 140.09 495.809 141.23C424.441 146.839 365.159 87.4948 370.773 16.1938C371.91 1.74783 353.821 -5.73717 344.414 5.27583C297.922 59.7148 214.024 59.6498 167.587 5.27583C158.177 -5.73917 140.092 1.75283 141.228 16.1938C143.906 50.2048 131.64 83.5128 107.576 107.577C83.511 131.641 50.209 143.903 16.192 141.23C1.74696 140.093 -5.73804 158.183 5.27496 167.588C31.216 189.743 46.095 221.968 46.095 256C46.095 290.032 31.216 322.258 5.27396 344.413C-5.73704 353.817 1.74396 371.91 16.191 370.771C50.208 368.092 83.51 380.359 107.575 404.424C131.639 428.488 143.905 461.796 141.227 495.807C140.09 510.252 158.179 517.738 167.586 506.725C214.078 452.286 297.976 452.351 344.413 506.725C353.774 517.685 371.912 510.296 370.772 495.807C365.154 424.447 424.507 365.164 495.808 370.771C510.252 371.919 517.738 353.819 506.726 344.414ZM464.007 342.159C433.669 346.89 405.336 361.089 383.212 383.213C361.086 405.339 346.888 433.666 342.158 464.007C290.867 426.548 221.156 426.531 169.84 464.007C165.111 433.667 150.912 405.339 128.787 383.213C106.661 361.088 78.333 346.889 47.992 342.159C66.103 317.361 76.093 287.29 76.093 256C76.093 224.71 66.102 194.639 47.992 169.841C78.33 165.11 106.663 150.911 128.787 128.787C150.913 106.661 165.111 78.3338 169.841 47.9928C221.132 85.4518 290.843 85.4688 342.159 47.9928C351.941 110.752 401.221 160.054 464.007 169.841C445.897 194.639 435.906 224.71 435.906 256C435.906 287.29 445.897 317.362 464.007 342.159Z" fill="white"/>
<path d="M255.999 112.237C176.729 112.237 112.236 176.729 112.236 256C112.236 335.271 176.728 399.763 255.999 399.763C335.27 399.763 399.761 335.272 399.761 256C399.761 176.728 335.269 112.237 255.999 112.237ZM255.999 369.765C193.269 369.765 142.235 318.73 142.235 256C142.235 193.27 193.269 142.235 255.999 142.235C318.729 142.235 369.763 193.27 369.763 256C369.763 318.73 318.728 369.765 255.999 369.765Z" fill="white"/>
</g>
<defs>
<clipPath id="clip0">
<rect width="512" height="512" fill="white"/>
</clipPath>
</defs>
</svg>
